<svg width="340" height="340" viewBox="0 0 340 340" fill="none" xmlns="http://www.w3.org/2000/svg">
<path d="M326.971 137.788C320.163 104.41 302.794 74.1095 277.435 51.365C252.075 28.6205 220.07 14.6396 186.15 11.4894C152.231 8.33915 118.199 16.1867 89.0841 33.8719C59.9695 51.5571 37.3181 78.1413 24.4788 109.694C11.6394 141.247 9.29369 176.094 17.7883 209.083C26.2829 242.072 45.167 271.452 71.6487 292.88C98.1304 314.307 130.804 326.645 164.84 328.069C198.875 329.494 232.465 319.928 260.644 300.788M246.011 279.244C222.456 295.243 194.378 303.239 165.928 302.048C137.479 300.858 110.167 290.544 88.0311 272.633C65.8953 254.722 50.1103 230.163 43.0098 202.588C35.9092 175.013 37.87 145.885 48.6023 119.51C59.3345 93.1356 78.2686 70.9142 102.605 56.1313C126.942 41.3484 155.389 34.7887 183.742 37.422C212.095 40.0552 238.847 51.7417 260.045 70.7536C281.243 89.7655 295.761 115.094 301.453 142.994" stroke="white"/>
<path d="M281.861 147.463C277.128 123.768 264.898 102.225 246.976 86.0188C229.055 69.8123 206.395 59.8024 182.345 57.469C158.296 55.1356 134.134 60.6026 113.431 73.0617C92.7286 85.5209 76.5845 104.311 67.3856 126.654C58.1867 148.997 56.4212 173.706 62.3502 197.13C68.2792 220.554 81.5879 241.448 100.309 256.724C119.03 272 142.169 280.846 166.306 281.956C190.443 283.065 214.296 276.379 234.34 262.885M224.023 247.561C207.269 258.84 187.33 264.43 167.154 263.502C146.978 262.575 127.636 255.18 111.988 242.411C96.3392 229.642 85.2146 212.177 80.2586 192.597C75.3027 173.018 76.7784 152.363 84.4677 133.687C92.1569 115.01 105.652 99.3042 122.957 88.8897C140.262 78.4752 160.458 73.9054 180.561 75.8559C200.664 77.8063 219.606 86.1735 234.586 99.7204C249.566 113.267 259.79 131.275 263.745 151.081" stroke="white"/>
<path d="M251.069 249.105C272.18 227.995 284.039 199.363 284.039 169.509M265.566 169.509C265.566 194.464 255.653 218.396 238.007 236.042" stroke="white"/>
<path d="M283.692 281.726C313.454 251.964 330.174 211.598 330.174 169.509M304.13 169.509C304.13 204.691 290.154 238.432 265.276 263.31" stroke="white"/>
<circle cx="171.475" cy="169.509" r="97.8032" fill="black"/>
<circle cx="171.474" cy="169.509" r="60.3963" fill="black" stroke="white"/>
<circle cx="171.475" cy="169.509" r="54.8603" stroke="white"/>
<circle cx="171.475" cy="169.509" r="9.22671" fill="white"/>
<circle cx="170" cy="170" r="169.5" stroke="white"/>
</svg>
